<svg width="80" height="80" viewBox="0 0 80 80" fill="none" xmlns="http://www.w3.org/2000/svg">
<path fill-rule="evenodd" clip-rule="evenodd" d="M40 74C58.7777 74 74 58.7777 74 40C74 21.2223 58.7777 6 40 6C21.2223 6 6 21.2223 6 40C6 58.7777 21.2223 74 40 74ZM40 80C62.0914 80 80 62.0914 80 40C80 17.9086 62.0914 0 40 0C17.9086 0 0 17.9086 0 40C0 62.0914 17.9086 80 40 80Z" fill="#2EEA62"/>
<path fill-rule="evenodd" clip-rule="evenodd" d="M59.1213 27.8787C60.2929 29.0503 60.2929 30.9497 59.1213 32.1213L38.6213 52.6213C37.4497 53.7929 35.5503 53.7929 34.3787 52.6213L23.3787 41.6213C22.2071 40.4497 22.2071 38.5503 23.3787 37.3787C24.5503 36.2071 26.4497 36.2071 27.6213 37.3787L36.5 46.2574L54.8787 27.8787C56.0503 26.7071 57.9497 26.7071 59.1213 27.8787Z" fill="#2EEA62"/>
</svg>
