<svg xmlns="http://www.w3.org/2000/svg" width="48" height="48" fill="none" viewBox="0 0 48 48">
    <path fill="#000" fill-rule="evenodd" d="M33.83 9.487c.45.302.566.904.258 1.345L14.936 38.261a1 1 0 0 1-1.373.252.956.956 0 0 1-.258-1.345L32.458 9.739a1 1 0 0 1 1.373-.252zM15.56 10.935h-.62c-1.637 0-2.964 1.3-2.964 2.904v4.037c0 1.603 1.327 2.903 2.963 2.903h.621c1.637 0 2.964-1.3 2.964-2.903v-4.037c0-1.604-1.327-2.904-2.964-2.904zM14.94 9C12.21 9 10 11.166 10 13.839v4.037c0 2.672 2.211 4.838 4.94 4.838h.62c2.728 0 4.94-2.166 4.94-4.838v-4.037C20.5 11.166 18.288 9 15.56 9h-.62zM33.06 27.221h-.62c-1.637 0-2.964 1.3-2.964 2.903v4.037c0 1.604 1.327 2.904 2.964 2.904h.62c1.637 0 2.964-1.3 2.964-2.904v-4.037c0-1.603-1.327-2.903-2.964-2.903zm-.62-1.935c-2.728 0-4.94 2.166-4.94 4.838v4.037c0 2.673 2.212 4.839 4.94 4.839h.62c2.728 0 4.94-2.166 4.94-4.839v-4.037c0-2.672-2.212-4.838-4.94-4.838h-.62z" clip-rule="evenodd"/>
</svg>
