<svg xmlns="http://www.w3.org/2000/svg" width="48" height="48" fill="none" viewBox="0 0 48 48">
    <path fill="#262626" fill-rule="evenodd" d="M39.828 5.812c.496 0 .897.402.897.897v9.458a.897.897 0 0 1-1.793 0V8.91L23.391 24.817a.897.897 0 0 1-1.253.03l-6.09-5.686L5.901 29.308a.897.897 0 0 1-1.268-1.268l10.758-10.758a.897.897 0 0 1 1.246-.021l6.083 5.677L37.699 7.605H30.37a.897.897 0 0 1 0-1.793h9.458zM36.645 39.857h-9.861v1.793h9.861v-1.793zm-9.861-1.793c-.99 0-1.793.803-1.793 1.793v1.793c0 .99.803 1.793 1.793 1.793h9.861c.99 0 1.794-.803 1.794-1.793v-1.793c0-.99-.803-1.793-1.794-1.793h-9.861zM36.645 32.685h-9.861v1.793h9.861v-1.793zm-9.861-1.793c-.99 0-1.793.803-1.793 1.793v1.793c0 .99.803 1.793 1.793 1.793h9.861c.99 0 1.794-.803 1.794-1.793v-1.793c0-.99-.803-1.793-1.794-1.793h-9.861z" clip-rule="evenodd"/>
    <path fill="#262626" fill-rule="evenodd" d="M36.645 29.099h-9.861v1.793h9.861v-1.793zm-9.861-1.793c-.99 0-1.793.803-1.793 1.793v1.793c0 .99.803 1.793 1.793 1.793h9.861c.99 0 1.794-.803 1.794-1.793v-1.793c0-.99-.803-1.793-1.794-1.793h-9.861z" clip-rule="evenodd"/>
    <path fill="#262626" fill-rule="evenodd" d="M36.645 29.099h-9.861v12.55h9.861V29.1zm-9.861-1.793c-.99 0-1.793.803-1.793 1.793v12.55c0 .991.803 1.794 1.793 1.794h9.861c.99 0 1.794-.803 1.794-1.793V29.099c0-.99-.803-1.793-1.794-1.793h-9.861zM20.509 39.857h-9.862v1.793h9.862v-1.793zm-9.862-1.793c-.99 0-1.793.803-1.793 1.793v1.793c0 .99.803 1.793 1.793 1.793h9.862c.99 0 1.793-.803 1.793-1.793v-1.793c0-.99-.803-1.793-1.793-1.793h-9.862z" clip-rule="evenodd"/>
    <path fill="#262626" fill-rule="evenodd" d="M20.509 36.27h-9.862v5.38h9.862v-5.38zm-9.862-1.792c-.99 0-1.793.803-1.793 1.793v5.379c0 .99.803 1.793 1.793 1.793h9.862c.99 0 1.793-.803 1.793-1.793v-5.38c0-.99-.803-1.792-1.793-1.792h-9.862z" clip-rule="evenodd"/>
</svg>
