<svg xmlns="http://www.w3.org/2000/svg" width="48" height="48" fill="none" viewBox="0 0 48 48">
    <path fill="#262626" fill-rule="evenodd" d="M24 42c9.941 0 18-8.059 18-18S33.941 6 24 6 6 14.059 6 24s8.059 18 18 18zm0 2c11.046 0 20-8.954 20-20S35.046 4 24 4 4 12.954 4 24s8.954 20 20 20z" clip-rule="evenodd"/>
    <path fill="#262626" fill-rule="evenodd" d="M19.598 15.949a1 1 0 0 0-1.05.102l-4.536 3.47a1 1 0 0 0 1.215 1.588l2.928-2.24v12.896a1 1 0 1 0 2 0v-14.92a1 1 0 0 0-.557-.896zM32.735 20.146a4.235 4.235 0 1 0-8.47 0v8.384a4.235 4.235 0 1 0 8.47 0v-8.384zM28.5 17.911c1.234 0 2.235 1 2.235 2.235v8.384a2.235 2.235 0 1 1-4.47 0v-8.384c0-1.234 1-2.235 2.235-2.235z" clip-rule="evenodd"/>
</svg>
