<svg width="24" height="24" viewBox="0 0 24 24" fill="none" xmlns="http://www.w3.org/2000/svg">
<path d="M9.16145 5.87336C9.16145 6.37737 9.16145 8.62697 9.16145 8.62697H7V11.9941H9.16145V22H13.6015V11.9944H16.581C16.581 11.9944 16.8601 10.3799 16.9953 8.61456C16.6075 8.61456 13.6183 8.61456 13.6183 8.61456C13.6183 8.61456 13.6183 6.65567 13.6183 6.31232C13.6183 5.96822 14.1024 5.50537 14.5809 5.50537C15.0585 5.50537 16.0664 5.50537 17 5.50537C17 5.04693 17 3.46292 17 2C15.7537 2 14.3358 2 13.7108 2C9.05169 1.99977 9.16145 5.37024 9.16145 5.87336Z" fill="#8D8D8D"/>
</svg>
