<svg width="24" height="24" viewBox="0 0 24 24" fill="none" xmlns="http://www.w3.org/2000/svg">
<path d="M23.0645 4.45933C22.1982 3.42281 20.5987 3 17.5441 3H6.45569C3.33112 3 1.70454 3.45008 0.841471 4.55362C0 5.62957 0 7.2149 0 9.40903V13.591C0 17.8418 0.9984 20 6.45569 20H17.5442C20.1931 20 21.661 19.6269 22.6106 18.7122C23.5845 17.7741 24 16.2426 24 13.591V9.40903C24 7.09513 23.9349 5.50045 23.0645 4.45933ZM15.4081 12.0774L10.3729 14.7261C10.2603 14.7853 10.1372 14.8147 10.0143 14.8147C9.87507 14.8147 9.73618 14.7769 9.61316 14.702C9.38152 14.5607 9.24008 14.308 9.24008 14.0354V8.75511C9.24008 8.483 9.38113 8.23053 9.61231 8.08918C9.84356 7.94783 10.1312 7.93817 10.3711 8.06363L15.4063 10.6952C15.6625 10.8291 15.8234 11.0953 15.8237 11.3857C15.8241 11.6763 15.6639 11.9429 15.4081 12.0774Z" fill="#8D8D8D"/>
</svg>
