<svg width="24" height="24" viewBox="0 0 24 24" fill="none" xmlns="http://www.w3.org/2000/svg">
<path fill-rule="evenodd" clip-rule="evenodd" d="M20.6554 13.9018C21.4515 14.703 22.2918 15.4568 23.0058 16.3388C23.3212 16.7308 23.6199 17.1352 23.8483 17.5901C24.172 18.2367 23.8788 18.9482 23.3163 18.9868L19.82 18.9852C18.9182 19.0623 18.1988 18.6881 17.5939 18.0526C17.1098 17.5443 16.6615 17.0034 16.1961 16.478C16.0052 16.2632 15.8055 16.0612 15.5669 15.9015C15.0896 15.5821 14.6753 15.6799 14.4025 16.193C14.1247 16.7149 14.0617 17.2928 14.0344 17.8745C13.997 18.7232 13.7481 18.9463 12.9211 18.9851C11.1537 19.071 9.47629 18.7954 7.91806 17.8764C6.54426 17.0661 5.47894 15.9223 4.5517 14.6274C2.74634 12.106 1.36379 9.33534 0.121208 6.48705C-0.158487 5.84533 0.0460603 5.50086 0.732957 5.48867C1.87358 5.46583 3.01405 5.46745 4.15601 5.48704C4.61959 5.49403 4.92649 5.76811 5.10549 6.21955C5.7226 7.78366 6.47771 9.27177 7.42553 10.6511C7.67794 11.0184 7.93532 11.3856 8.30184 11.6441C8.7073 11.9303 9.01602 11.8354 9.20677 11.3698C9.32781 11.0746 9.3808 10.7566 9.40808 10.4404C9.49845 9.35265 9.51035 8.26672 9.35186 7.18275C9.25455 6.50624 8.88488 6.06829 8.23 5.94027C7.89582 5.875 7.94558 5.74682 8.10738 5.5502C8.38842 5.21109 8.65274 5 9.17964 5H13.1311C13.7532 5.12656 13.8913 5.41462 13.9765 6.05984L13.9799 10.5842C13.9731 10.834 14.1009 11.5752 14.5374 11.7406C14.8867 11.8582 15.117 11.5702 15.3265 11.3419C16.2726 10.3068 16.9479 9.08361 17.5511 7.81699C17.8188 7.26004 18.049 6.68164 18.2721 6.10373C18.4373 5.67488 18.6967 5.46388 19.1653 5.47322L22.9684 5.47672C23.0811 5.47672 23.1952 5.47843 23.3044 5.49769C23.9453 5.61027 24.1209 5.89443 23.923 6.53948C23.6111 7.55152 23.0043 8.3949 22.411 9.24219C21.7768 10.1468 21.0985 11.0204 20.4696 11.9303C19.8917 12.7613 19.9376 13.1801 20.6554 13.9018Z" fill="#8D8D8D"/>
</svg>
